<?xml version="1.0" encoding="UTF-8"?>
<svg width="1547px" height="190px" viewBox="0 0 1547 190" version="1.1" xmlns="http://www.w3.org/2000/svg" xmlns:xlink="http://www.w3.org/1999/xlink">
    <!-- Generator: Sketch 48.2 (47327) - http://www.bohemiancoding.com/sketch -->
    <title>callUs</title>
    <desc>Created with Sketch.</desc>
    <defs></defs>
    <g id="Pepis-Guy" stroke="none" stroke-width="1" fill="none" fill-rule="evenodd">
        <path d="M63.8190467,154.417969 C24.6588905,154.417969 0.244828,126.195313 0.244828,80.5898438 C0.244828,34.8867188 24.5612342,6.6640625 63.7213905,6.6640625 C94.776078,6.6640625 118.799515,26.78125 122.31514,55.4921875 L100.537797,55.4921875 C96.4362342,38.2070312 82.276078,27.0742188 63.7213905,27.0742188 C38.4284217,27.0742188 22.6081092,47.6796875 22.6081092,80.5898438 C22.6081092,113.402344 38.4284217,134.007813 63.8190467,134.007813 C82.4713905,134.007813 96.6315467,123.949219 100.537797,108.03125 L122.31514,108.03125 C118.40889,135.863281 95.2643592,154.417969 63.8190467,154.417969 Z M179.362854,135.082031 C195.183166,135.082031 206.901916,125.023438 206.901916,111.839844 L206.901916,102.953125 L180.925354,104.613281 C166.276916,105.589844 159.636291,110.570312 159.636291,119.945312 C159.636291,129.515625 167.937072,135.082031 179.362854,135.082031 Z M173.99176,152.757812 C153.483947,152.757812 138.542541,140.355469 138.542541,120.921875 C138.542541,101.78125 152.800354,90.7460938 178.093322,89.1835938 L206.901916,87.5234375 L206.901916,78.34375 C206.901916,67.1132812 199.480041,60.765625 185.124572,60.765625 C173.405822,60.765625 165.300354,65.0625 162.956604,72.5820312 L142.644104,72.5820312 C144.792541,54.3203125 161.980041,42.6015625 186.101135,42.6015625 C212.761291,42.6015625 227.800354,55.8828125 227.800354,78.34375 L227.800354,151 L207.58551,151 L207.58551,136.058594 L205.925354,136.058594 C199.577697,146.703125 187.956604,152.757812 173.99176,152.757812 Z M254.672286,151 L254.672286,3.1484375 L275.668379,3.1484375 L275.668379,151 L254.672286,151 Z M304.102811,151 L304.102811,3.1484375 L325.098905,3.1484375 L325.098905,151 L304.102811,151 Z M405.698238,10.0820312 L460.874019,10.0820312 C488.413082,10.0820312 507.358394,29.125 507.358394,57.0546875 C507.358394,84.59375 487.827144,103.539062 460.190425,103.539062 L427.573238,103.539062 L427.573238,151 L405.698238,151 L405.698238,10.0820312 Z M427.573238,29.4179688 L427.573238,84.3007813 L455.1123,84.3007813 C473.959957,84.3007813 484.995113,74.5351563 484.995113,57.0546875 C484.995113,39.1835938 474.350582,29.4179688 455.1123,29.4179688 L427.573238,29.4179688 Z M569.777201,60.4726563 C554.249857,60.4726563 543.410014,71.4101563 542.238139,88.0117188 L595.949076,88.0117188 C595.460795,71.3125 585.304545,60.4726563 569.777201,60.4726563 Z M595.85142,122.289062 L616.066264,122.289062 C611.281107,141.332031 594.28892,153.050781 569.972514,153.050781 C539.503764,153.050781 520.85142,132.152344 520.85142,98.1679688 C520.85142,64.1835938 539.894389,42.6015625 569.874857,42.6015625 C599.464701,42.6015625 617.335795,62.8164062 617.335795,96.2148438 L617.335795,103.539062 L542.238139,103.539062 L542.238139,104.710938 C542.921732,123.363281 553.761576,135.179688 570.558451,135.179688 C583.253764,135.179688 591.94517,130.589844 595.85142,122.289062 Z M693.914758,44.6523438 C720.965539,44.6523438 737.860071,63.9882812 737.860071,97.7773438 C737.860071,131.566406 720.770227,152.757812 693.914758,152.757812 C678.778039,152.757812 666.766321,146.117188 661.199914,134.886719 L659.539758,134.886719 L659.539758,186.351562 L638.543664,186.351562 L638.543664,44.6523438 L658.758508,44.6523438 C672.560592,44.6523438 684.279342,44.6523438 693.914758,44.6523438 Z M687.762414,133.910156 C705.633508,133.910156 716.278039,120.335938 716.278039,97.7773438 C716.278039,75.3164062 705.633508,61.7421875 687.860071,61.7421875 C670.184289,61.7421875 659.149133,75.609375 659.149133,97.875 C659.149133,120.042969 670.184289,133.910156 687.762414,133.910156 Z M759.458565,151 L759.458565,44.6523437 L780.357003,44.6523437 L780.357003,151 L759.458565,151 Z M769.907784,26 C762.095284,26 756.333565,20.4335938 756.333565,13.2070312 C756.333565,5.8828125 762.095284,0.31640625 769.907784,0.31640625 C777.720284,0.31640625 783.482003,5.8828125 783.482003,13.2070312 C783.482003,20.4335938 777.720284,26 769.907784,26 Z M823.537529,65.7460938 L808.596122,65.7460938 L817.580497,10.0820312 L839.943779,10.0820312 L823.537529,65.7460938 Z M849.62821,74.7304688 C849.62821,55.8828125 866.913367,42.6015625 890.936804,42.6015625 C914.862585,42.6015625 930.487585,53.734375 932.538367,72.484375 L912.421179,72.484375 C910.468054,64.671875 902.850867,59.6914062 890.936804,59.6914062 C879.218054,59.6914062 870.331335,65.2578125 870.331335,73.5585938 C870.331335,79.90625 875.702429,83.9101562 887.225867,86.546875 L904.901648,90.6484375 C925.116492,95.3359375 934.589148,104.027344 934.589148,119.652344 C934.589148,139.671875 915.936804,153.050781 890.546179,153.050781 C865.25321,153.050781 848.749304,141.625 846.893835,122.777344 L867.889929,122.777344 C870.526648,130.980469 878.339148,136.058594 891.03446,136.058594 C904.120398,136.058594 913.397742,130.199219 913.397742,121.703125 C913.397742,115.355469 908.417273,111.253906 897.772742,108.714844 L879.218054,104.417969 C859.00321,99.6328125 849.62821,90.5507812 849.62821,74.7304688 Z M1066.65332,151 L1044.77832,151 L1044.77832,30.0039062 L1000.44239,30.0039062 L1000.44239,10.0820312 L1110.89161,10.0820312 L1110.89161,30.0039062 L1066.65332,30.0039062 L1066.65332,151 Z M1157.00182,153.050781 C1125.84948,153.050781 1106.80651,132.25 1106.80651,97.7773438 C1106.80651,63.5 1125.94713,42.6015625 1157.00182,42.6015625 C1187.95885,42.6015625 1207.09948,63.5 1207.09948,97.7773438 C1207.09948,132.25 1188.05651,153.050781 1157.00182,153.050781 Z M1157.00182,134.398438 C1175.16588,134.398438 1185.51744,120.921875 1185.51744,97.7773438 C1185.51744,74.7304688 1175.16588,61.2539062 1157.00182,61.2539062 C1138.7401,61.2539062 1128.48619,74.7304688 1128.48619,97.7773438 C1128.48619,121.019531 1138.7401,134.398438 1157.00182,134.398438 Z M1267.17453,152.757812 C1240.12375,152.757812 1223.03391,131.46875 1223.03391,97.7773438 C1223.03391,64.1835938 1240.31906,42.8945312 1267.17453,42.8945312 C1281.72531,42.8945312 1294.03,49.828125 1299.79172,61.546875 L1301.35422,61.546875 L1301.35422,3.1484375 L1322.35031,3.1484375 L1322.35031,151 L1302.23313,151 L1302.23313,134.203125 L1300.57297,134.203125 C1294.22531,145.824219 1281.82297,152.757812 1267.17453,152.757812 Z M1273.13156,61.7421875 C1255.45578,61.7421875 1244.71359,75.4140625 1244.71359,97.7773438 C1244.71359,120.335938 1255.35813,133.910156 1273.13156,133.910156 C1290.80734,133.910156 1301.74484,120.140625 1301.74484,97.875 C1301.74484,75.7070312 1290.70969,61.7421875 1273.13156,61.7421875 Z M1384.57381,135.082031 C1400.39412,135.082031 1412.11287,125.023438 1412.11287,111.839844 L1412.11287,102.953125 L1386.13631,104.613281 C1371.48787,105.589844 1364.84725,110.570312 1364.84725,119.945312 C1364.84725,129.515625 1373.14803,135.082031 1384.57381,135.082031 Z M1379.20271,152.757812 C1358.6949,152.757812 1343.7535,140.355469 1343.7535,120.921875 C1343.7535,101.78125 1358.01131,90.7460938 1383.30428,89.1835938 L1412.11287,87.5234375 L1412.11287,78.34375 C1412.11287,67.1132812 1404.691,60.765625 1390.33553,60.765625 C1378.61678,60.765625 1370.51131,65.0625 1368.16756,72.5820312 L1347.85506,72.5820312 C1350.0035,54.3203125 1367.191,42.6015625 1391.31209,42.6015625 C1417.97225,42.6015625 1433.01131,55.8828125 1433.01131,78.34375 L1433.01131,151 L1412.79646,151 L1412.79646,136.058594 L1411.13631,136.058594 C1404.78865,146.703125 1393.16756,152.757812 1379.20271,152.757812 Z M1465.93793,189.574219 C1464.18012,189.574219 1459.19965,189.378906 1457.24652,189.085938 L1457.24652,171.019531 C1458.90668,171.3125 1462.12933,171.410156 1464.08246,171.410156 C1474.0434,171.410156 1479.70746,167.308594 1483.32074,156.566406 L1484.88324,151.390625 L1446.40668,44.6523438 L1469.25824,44.6523438 L1495.9184,129.125 L1497.57855,129.125 L1524.14105,44.6523438 L1546.40668,44.6523438 L1506.75824,155.394531 C1497.67621,181.273438 1487.61762,189.574219 1465.93793,189.574219 Z" id="callUs" fill="#FFFFFF"></path>
    </g>
</svg>