<?xml version="1.0" encoding="UTF-8"?>
<svg width="864px" height="787px" viewBox="0 0 864 787" version="1.1" xmlns="http://www.w3.org/2000/svg" xmlns:xlink="http://www.w3.org/1999/xlink">
    <!-- Generator: Sketch 48.2 (47327) - http://www.bohemiancoding.com/sketch -->
    <title>pepisguy2</title>
    <desc>Created with Sketch.</desc>
    <defs></defs>
    <g id="Pepis-Guy" stroke="none" stroke-width="1" fill="none" fill-rule="evenodd">
        <g id="pepisguy2">
            <path d="M241.486277,91.655074 C293.237425,132.830324 356.630778,152.914973 431.666338,151.909022 C515.540448,153.700557 528.859441,131.404558 528.859441,118.469323 C517.813826,113.49471 498.26867,88.0835851 495.783776,65.26956 C493.298883,42.4555349 511.368113,6.35427034 541.704861,1.38629796 C572.041608,-3.58167442 627.899544,11.8674859 647.409451,30.980934 C666.585497,20.9887412 704.68266,16.9252578 742.586584,46.577065 C780.490508,76.2288721 819.494691,101.10037 810.688199,156.439023 C804.817205,193.331459 782.878496,211.113668 744.872074,209.785651 C751.301996,289.573029 757.172668,335.454398 762.484091,347.429757 C770.451224,365.392796 789.560802,451.187546 796.218422,539.842249 C802.876041,628.496952 824.911059,730.474142 863.253076,783.390802 C776.189388,797.512421 700.460325,759.587184 671.336411,736.406926 C642.212497,713.226668 525.322834,608.035418 459.229324,531.503281 C415.166985,480.481856 387.875713,446.224825 377.355511,428.732189 C332.059867,358.962372 303.910697,322.711721 292.907999,319.980236 C281.905302,317.248751 281.905302,312.034467 292.907999,304.337384 C282.850743,297.713674 278.984728,292.801744 281.309954,289.601595 C284.797792,284.801371 365.260519,256.15448 383.474786,254.402136 C343.190534,239.838586 306.968628,237.747085 272.980014,199.379582 C238.991401,161.01208 235.200765,120.381231 238.991401,102.928738 C239.799089,99.8237732 240.630715,96.0658853 241.486277,91.655074 Z" id="baseBlack" fill="#000000"></path>
            <path d="M651.499652,69.9398797 C630.089534,38.3997118 599.288265,24.447167 559.095844,28.0822456 C518.903424,31.7173241 503.15248,51.6632025 511.843014,87.9198809 C516.898539,101.52061 523.561195,110.513151 531.830982,114.897502 C537.503165,115.548732 544.262056,109.715013 552.107654,97.3963468 C557.396667,88.496635 560.633099,83.4340255 561.81695,82.2085185 C563.000802,80.9830116 562.093766,79.580229 559.095844,78.0001708 C556.402504,76.092272 555.526131,74.6322525 556.466725,73.6201122 C557.407319,72.6079718 559.640992,73.114042 563.167743,75.1383226 C565.227002,75.7497346 566.469203,75.0361805 566.894346,72.9976602 C567.532061,69.9398797 571.129404,66.2022017 573.136991,69.1212868 C573.136991,71.0565322 573.136991,73.3264547 573.136991,75.9310546 L610.534192,86.2651883 L609.331262,87.9198809 L573.136991,81.2664935 C570.890735,80.484573 567.98898,83.2856864 564.431726,89.6698337 C559.095844,99.2460547 546.752659,120.945542 536.135202,123.484478 C534.202977,124.151288 533.62393,126.72409 534.540675,127.955162 C535.457421,129.186233 538.439944,129.719014 540.282974,127.955162 C542.126004,126.191309 545.443363,124.716027 546.756951,125.218281 C548.07054,125.720535 548.776939,127.884569 546.756951,128.485081 C544.736964,129.085592 545.446225,130.717799 548.776939,132.108657 C550.997415,133.035896 553.560677,134.267922 556.466725,135.804734 C559.609035,138.063368 560.161371,139.418613 558.123735,139.870467 C555.067282,140.548248 546.834221,138.743852 544.56573,137.274293 C543.053402,136.294587 542.297238,136.78444 542.297238,138.743852 C542.649563,141.01616 544.136134,142.629765 546.756951,143.584669 C550.688177,145.017024 557.414474,148.223247 561.81695,146.648277 C566.219427,145.073307 576.133346,142.345011 581.722535,145.073307 C587.311725,147.801602 643.543718,179.839243 716.647272,184.335639 C720.650103,184.335639 721.140954,180.755175 718.119824,173.594247 L704.388137,116.446889 L702.829541,109.960459 L708.973168,109.960459 L734.553213,189.219407 C754.536595,195.301968 770.6339,187.304151 782.845129,165.225953 C801.161972,132.108657 781.705643,88.5681821 740.429844,66.2273898 C699.154044,43.8865975 670.390863,42.7869352 656.99218,54.9764422 C655.514499,59.7045373 654.775659,64.6923498 654.775659,69.9398797 L651.499652,69.9398797 Z" id="Hat" fill="#FF7301"></path>
            <path d="M536.47042,150.92869 C464.316516,197.344864 343.441387,183.209608 270.464664,146.340214 C266.596181,143.995064 266.734777,146.610251 270.880453,154.185774 C299.214469,181.95118 331.167438,206.225376 366.73936,227.008361 C373.971453,232.095764 388.30984,241.518544 409.75452,255.2767 C393.928833,266.022719 359.11251,279.056998 305.30555,294.379538 C316.595404,307.489533 401.732896,332.26754 452.754733,315.66274 C486.769291,304.592874 509.583383,291.951537 521.197009,277.73873 C524.474212,278.132971 524.474212,280.40016 521.197009,284.540299 C516.281204,290.750507 502.927976,330.330512 455.732594,340.281125 C408.537212,350.231738 349.660846,341.512364 327.483198,331.583721 C305.30555,321.655078 363.834517,370.841499 372.33419,380.419536 C380.833863,389.997573 540.698872,582.830501 559.851473,598.307152 C579.004075,613.783803 681.245622,668.38905 726.294003,679.522046 C745.43727,681.794055 768.84848,682.93006 796.527633,682.93006 C791.962235,653.268612 789.618718,636.201263 789.497083,631.728013 C789.314629,625.018139 792.096772,612.466427 779.521839,618.67096 C768.558028,627.608982 766.478056,631.728013 752.791814,631.728013 C739.105572,631.728013 664.609159,627.360181 632.7074,604.813322 C603.290328,588.730855 530.249122,541.093843 525.080705,535.368113 C521.635094,531.55096 523.729872,530.487108 531.365039,532.176559 L615.148895,566.428326 C658.382728,584.890165 687.715372,595.51644 703.146824,598.307152 C726.294003,602.49322 767.499028,604.274485 789.497083,594.121084 C787.577916,581.241775 786.037775,567.073874 784.876661,551.617379 C785.294984,545.55706 781.766055,544.481755 774.289874,548.391465 C763.075602,554.256031 739.810413,563.880139 709.436416,558.675237 C679.062419,553.470335 622.476545,541.515509 590.446532,527.464929 C558.416519,513.41435 490.913513,488.858244 485.834277,482.18256 C482.44812,477.732104 477.567249,472.041101 471.191665,465.10955 C469.534652,463.080986 469.534652,461.480795 471.191665,460.308978 C472.848677,459.13716 477.729548,460.737351 485.834277,465.10955 C593.923196,500.335521 652.701878,518.096515 662.170325,518.392532 C676.372996,518.836557 752.885113,523.52893 781.513998,511.644375 C779.521839,478.356904 749.287357,385.647431 745.419863,350.655086 C741.552369,315.66274 739.194318,298.07987 731.984803,289.217129 C724.775288,280.354388 705.622469,251.391627 704.384646,238.847212 C703.146824,226.302798 699.741,211.488186 700.811734,203.287719 C689.369118,198.50998 673.401353,193.656715 652.908438,188.727923 C657.481973,208.294368 660.889821,220.083499 663.131982,224.095318 C666.495223,230.113046 670.669744,236.646201 669.146738,238.847212 C673.142213,240.184293 677.593103,242.576677 682.499408,246.024364 C686.910923,246.907955 688.604059,244.950088 687.578816,240.150765 C686.553574,235.351441 681.557621,221.891046 672.590959,199.769581 L678.849396,199.769581 C689.456942,220.224903 694.840703,234.807617 695.000681,243.517721 C695.240647,256.582877 699.924662,280.557951 703.146824,291.33637 C706.368986,302.114789 707.956626,348.483984 675.862077,371.053435 C654.465711,386.099736 637.060857,389.22177 623.647514,380.419536 C616.221354,373.290812 613.38848,363.369329 615.148895,350.655086 C616.064434,343.823588 618.161724,341.095551 620.904619,342.285724 C623.647514,343.475897 625.768578,350.47652 626.007801,361.562512 C626.247024,372.648505 643.646551,377.325988 652.908438,369.44425 C662.170325,361.562512 689.540893,349.301949 690.268964,319.857429 C690.997034,290.412909 685.800494,255.42985 650.474694,254.017542 C626.924161,253.076002 613.665596,260.431746 610.698998,276.084773 C609.604416,278.580885 608.150998,279.480572 606.338746,278.783835 C603.620367,277.73873 603.745922,267.827856 608.121776,260.434223 C612.49763,253.040589 627.987708,231.039479 641.819567,231.791323 C651.040807,232.292553 657.350506,233.079563 660.748665,234.152353 C663.74168,232.926046 663.74168,230.544716 660.748665,227.008361 C656.259142,221.703828 646.489621,203.075617 646.175362,197.531878 C645.861103,191.988139 646.661981,189.584762 635.154748,186.879014 C623.647514,184.173265 548.384311,155.636604 544.623602,152.407833 C540.862894,149.179062 537.313775,150.443275 536.47042,150.92869 Z" id="Face" fill="#FF7301"></path>
            <path d="M705.254305,206.591977 C710.491751,206.591977 725.215738,208.890526 725.650236,209.325024 C726.084734,209.759522 729.067215,248.329275 731.8881,252.402694 C734.708985,256.476114 734.015666,262.521538 729.832951,261.022252 C725.650236,259.522965 720.015842,249.866111 715.290675,238.819935 C710.565508,227.77376 706.803845,222.204943 705.645148,217.757295 C704.48645,213.309648 700.01686,206.591977 705.254305,206.591977 Z" id="backHair" fill="#FF7301"></path>
            <path d="M653.718472,671.156957 C686.393075,678.661879 701.043912,689.793811 720.378224,692.31912 C728.273441,692.31912 736.573711,698.715513 743.627159,701.066662 C750.680607,703.417811 770.972794,707.503956 780.698003,701.066662 C787.181475,696.775133 793.390515,695.708628 799.325122,697.867146 C805.618603,709.437299 808.536209,718.55515 808.077942,725.220698 C807.390541,735.21902 813.081061,735.919615 815.432211,742.33184 C817.78336,748.744066 823.125562,754.025576 808.077942,751.389439 C793.030322,748.753302 787.231612,741.110087 768.733793,740.590248 C750.235973,740.070409 709.084262,719.121167 701.943735,713.603487 C694.803207,708.085806 683.145019,697.867146 676.57712,695.713208 C670.009221,693.559269 646.845101,679.055124 645.436666,675.106041 C644.028232,671.156957 646.557851,668.747705 653.718472,671.156957 Z" id="lowerNeck" fill="#FF7301"></path>
            <path d="M491.216282,186.990568 C494.353184,186.507861 495.98952,186.507861 496.125291,186.990568 C500.306383,201.855595 522.901296,208.818885 541.744462,211.534003 C563.913958,211.154173 574.694197,210.248175 574.085177,208.816011 C564.64376,225.705006 548.029684,233.81379 524.242951,233.142362 C506.863296,233.142362 484.578668,211.939926 483.135743,203.63504 C482.060275,198.239945 484.753788,192.691787 491.216282,186.990568 Z" id="eye" fill="#000000"></path>
            <path d="M14.0997651,464.448564 C14.0997651,464.448564 32.711206,445.492327 69.9340877,407.579854 C77.1548389,403.978827 81.6102788,400.971002 83.3004076,398.556379 C85.8356008,394.934445 119.035433,397.952026 126.040521,395.267515 C133.045609,392.583003 157.945961,363.296046 164.430749,348.02098 C170.915538,332.745913 176.871337,320.251012 169.819653,314.962249 C165.11853,311.436407 157.575365,310.076609 147.190158,310.882855 C143.030534,314.799068 140.518289,317.937869 139.653422,320.299257 C135.232061,332.371115 133.304103,341.194174 129.648684,345.460934 C123.984738,346.456935 117.208113,347.000341 120.708496,326.783325 C124.208878,306.566309 138.198645,269.292179 155.154377,259.659319 C162.095916,255.391164 161.658773,265.179902 161.381278,268.516782 C158.913512,280.401768 150.860183,291.029726 155.154377,300.726424 C159.448572,310.423123 175.438885,309.920972 177.690301,306.257292 C179.941716,302.593611 195.463445,286.986853 197.274055,261.257563 C199.084665,235.528272 183.443816,222.558693 177.325702,222.428496 C171.207589,222.298299 161.825007,228.164804 156.890242,231.305162 C151.955477,234.445519 146.180604,234.087422 148.022461,229.74057 C149.864318,225.393718 168.851706,194.169525 181.534076,181.041013 C194.216445,167.912501 187.74651,154.475566 182.978976,153.621472 C178.211442,152.767378 172.362403,150.835251 161.381278,167.154463 C149.720812,180.085076 148.908591,181.229449 146.332247,184.979064 C144.614684,187.478807 143.17228,189.565911 142.005034,191.240376 L128.397975,207.865696 L127.34656,206.736163 C131.616258,188.854584 135.931284,177.127766 140.291638,171.555709 C146.832169,163.197624 150.864944,145.459551 142.005034,141.989939 C133.145123,138.520327 109.992713,146.697872 96.1362539,183.411181 C86.8986145,207.886721 80.1152414,224.376636 75.7861347,232.880928 L73.1277962,232.880928 C70.0984238,232.092029 68.8087959,227.396827 69.2589127,218.795321 C69.9340877,205.893063 75.8370563,179.254128 60.9829969,177.615957 C46.1289375,175.977786 40.4760623,202.477266 38.3402488,210.636294 C36.2044353,218.795321 28.9666256,253.945106 35.0621714,284.123093 C28.078391,309.374994 8.20282639,359.056073 6.94957126,377.963326 C5.69631613,396.870579 -0.541617177,426.364443 1.12982145,446.631191 C2.80126007,466.897939 14.0997651,464.448564 14.0997651,464.448564 Z" id="handBlack" fill="#000000"></path>
            <path d="M15.1676385,463.986276 C20.7489834,468.096656 30.9685533,474.745739 48.0174308,445.278739 C65.0663082,415.81174 75.1988135,394.844378 87.817324,392.241314 C100.435834,389.638251 116.596486,392.442899 128.013074,383.287409 C139.429661,374.13192 149.207576,367.728205 154.168461,353.171717 C159.129346,338.61523 164.847966,330.328572 163.280509,322.153011 C162.235537,316.702636 158.044019,315.657902 150.705954,319.018808 C146.782919,322.786593 144.05702,328.313168 142.528256,335.598533 C140.235111,346.526581 130.843897,354.236392 116.455479,354.709264 C107.403253,355.610143 117.317901,305.334713 121.822294,296.122251 C126.326686,286.909789 138.192645,259.802248 155.755859,249.773654 C167.464668,243.087925 172.106269,250.26623 169.680663,271.308567 C163.0652,286.325108 161.411334,297.033574 164.719066,303.433966 C168.026797,309.834358 171.393163,309.01965 174.818163,300.989844 C177.427506,291.972987 179.635904,285.226013 181.443359,280.74892 C184.15454,274.03328 186.758186,254.495255 182.664708,243.458247 C178.57123,232.421239 177.578483,226.296689 163.280509,234.877468 C148.982534,243.458247 133.432588,248.768801 129.26647,254.966703 C126.489058,259.098637 124.795549,258.317164 124.185942,252.622282 L139.280108,220.678483 C155.362511,201.130726 165.496029,188.425134 169.680663,182.561709 C175.957614,173.766571 174.057579,165.665786 171.869121,165.431486 C169.680663,165.197187 167.2693,166.860785 164.719066,170.1773 C162.168832,173.493815 137.051769,202.046322 130.618856,209.5902 C124.185942,217.134079 111.286644,241.98337 105.115804,247.993262 C98.9449648,254.003154 97.8370502,251.103964 99.9798296,244.725886 C101.408349,240.473835 108.689171,224.026571 121.822294,195.384094 C130.688173,175.564767 135.330723,163.144038 135.749946,158.121908 C136.378781,150.588712 136.393736,148.411648 132.830103,148.642387 C130.454348,148.796213 124.492407,155.262598 114.944282,168.041541 C97.0629714,199.0047 86.2253674,222.448906 82.4314702,238.374159 C78.6375729,254.299412 74.8208865,262.941911 70.9814112,264.301656 C67.8626387,265.044198 66.1116822,262.511768 65.7285418,256.704366 C65.1538312,247.993262 58.3612785,209.4086 59.9315845,199.935489 C61.5018905,190.462378 58.9281554,187.942766 55.7747245,188.519614 C52.6212937,189.096461 43.1225447,206.909642 43.0705573,223.255779 C43.0185698,239.601917 41.4162167,291.391393 43.1225447,298.486612 C34.9526805,315.319865 13.7905637,350.015596 13.7905637,392.241314 C13.7905637,434.467033 12.5341385,451.784674 15.1676385,463.986276 Z" id="handOrange" fill="#FF7301"></path>
        </g>
    </g>
</svg>