<?xml version="1.0" encoding="UTF-8"?>
<svg width="985px" height="274px" viewBox="0 0 985 274" version="1.1" xmlns="http://www.w3.org/2000/svg" xmlns:xlink="http://www.w3.org/1999/xlink">
    <!-- Generator: Sketch 48.2 (47327) - http://www.bohemiancoding.com/sketch -->
    <title>special3</title>
    <desc>Created with Sketch.</desc>
    <defs></defs>
    <g id="Page-1" stroke="none" stroke-width="1" fill="none" fill-rule="evenodd">
        <g id="special3">
            <g id="Group" transform="translate(820.000000, 44.000000)">
                <path d="M56.7142661,90.9132678 C64.2521436,95.2509467 68.4321007,97.4197861 69.2541372,97.4197861 C73.5374835,97.4197861 78.5298498,97.4197861 84.2312362,97.4197861 C95.171397,97.4197861 100.541118,94.4359217 105.812287,88.9702081 C111.083455,83.5044945 113.719,76.2501108 113.719,67.2068392 C113.719,58.4616974 113.84414,54.772307 108.6227,49.9028531 C103.40126,45.0333992 96.2156709,42.5987087 87.0657182,42.5987087 C78.8108696,42.5987087 74.8236736,42.4072885 69.2541372,46.9289242 C63.6846008,51.45056 70.7222611,58.1902311 78.8643073,64.1784759 C78.8643073,64.1784759 12.6414691,64.1784759 12.6414691,64.1784759 C18.579185,58.9121893 20.9639055,55.9332716 24.0357889,51.8292223 C19.8467113,47.0360963 20.8175169,34.0349219 24.0357889,29.3028713 C30.1523333,20.3092881 38.7054216,13.2784983 49.6953104,8.21029113 C60.6851992,3.14208398 72.7937864,0.608018407 86.0214354,0.608018407 C108.995773,0.608018407 126.99704,10.4904754 140.025777,21.4715909 C153.054514,32.4527064 159.568785,47.5825685 159.568785,66.861631 C159.568785,76.7992921 156.535422,85.9418032 150.468606,94.2894385 C146.088352,100.316448 139.060372,109.286084 135.006938,111.526619 C135.006938,113.069472 135.006938,113.482827 135.006938,114.584153 C144.774571,119.194413 149.665591,123.397266 155.68268,132.142407 C161.699768,140.887549 164.085272,152.275341 164.085272,164.200535 C164.085272,183.479597 157.007876,200.512126 142.934851,212.139189 C128.861826,223.766253 110.238968,229.579697 87.0657182,229.579697 C65.3843087,229.579697 45.1883355,224.395465 31.4136785,212.967155 C24.469302,207.205669 19.9978644,196.002155 21.1920381,186.59896 C12.6414691,181.890151 11.3249451,180.422844 0.765126701,174.731292 L73.4016402,164.200535 C67.4800286,169.837523 62.0362595,180.010788 68.1528039,185.178371 C74.2693484,190.345955 81.9420911,191.448008 90.8931317,191.448008 C101.1371,191.448008 110.217695,186.816215 113.719,182.57429 C117.220304,178.332365 118.201428,170.052654 117.220304,161.206405 C115.601296,146.608695 110.93516,133.195187 87.0657182,133.195187 C79.4746011,133.195187 73.5374075,133.195187 69.2541372,133.195187 C67.8021397,133.195187 65.1364318,135.492668 61.2570134,140.08763 L56.7142661,90.9132678 Z" id="3" fill="#FFFFFF"></path>
                <path d="M60.5543029,96.8780372 C62.8941496,98.5960973 65.4987424,100.506532 68.3680815,102.609342 C71.8393324,102.609342 78.506669,102.235707 88.3700912,101.488437 C99.3030883,101.488437 105.460142,96.0880713 110.727859,90.6267919 C115.995576,85.1655125 118.056149,74.2150177 118.056149,65.1790827 C118.056149,56.4410356 112.83818,48.023979 107.620158,43.1584755 C102.402137,38.292972 95.2212535,35.8602567 86.0772923,35.8602567 C77.8278491,35.8602567 70.9202864,38.1192066 65.354397,42.6371741 C59.7885076,47.1551417 62.4476728,55.8477518 70.5843875,61.8311384 C63.0431075,58.560453 19.4356198,60.7182589 20.4815878,60.7182589 C23.6618812,57.8133969 25.5338993,54.2657222 28.6037711,50.1650024 C24.4174366,45.3757649 23.0135736,40.2228973 26.2297382,35.4946857 C32.3422775,26.5083987 37.6691223,20.6602007 48.6518148,15.5961052 C59.6345073,10.5320098 71.7351657,8 84.954153,8 C107.913447,8 122.115542,13.9255939 135.135747,24.8978007 C141.601693,30.346693 150.209594,43.6123817 152.371796,57.6485682 C154.56353,71.8764644 151.894487,85.3559397 148.842503,89.5546585 C142.77966,97.8955216 129.864127,109.371053 120.024429,113.839372 C132.249508,118.208396 144.967174,124.122992 150.980323,132.861039 C156.993471,141.599087 160,151.925715 160,163.841233 C160,183.104655 152.968201,198.54495 138.904391,210.162581 C124.840581,221.780212 109.235368,225 86.0772923,225 C64.41008,225 46.6939209,219.290566 32.9282837,207.871527 C25.9884544,202.114716 25.0363465,193.496605 26.2297382,184.101038 C23.5165366,182.817818 17.6179644,178.433486 13.7829582,176.651947 L64.0640729,170.03767 C58.1463388,175.670085 56.6521544,182.299623 62.7646937,187.463014 C68.8772329,192.626406 79.4249118,195.580421 88.3700912,195.580421 C98.6073521,195.580421 106.633045,192.874646 112.447412,187.463014 C118.261779,182.051383 121.168918,174.877355 121.168918,165.940716 C121.168918,144.294191 110.50435,127.03264 86.650538,127.03264 C76.8643894,126.975872 71.0314124,127.250339 69.1516069,127.856042 C67.3924272,129.546869 65.6965825,130.565937 64.0640729,130.913247 L60.5543029,96.8780372 Z" id="3-copy" fill="#DB4032"></path>
            </g>
            <g id="Original-Version-Copy">
                <g id="e" transform="translate(313.000000, 112.000000)">
                    <path d="M103.211055,70.7337686 C98.5068796,70.7337686 77.3005425,71.4019118 39.5920438,72.738198 C36.6073508,88.1747208 42.1832067,97.720303 56.3196114,101.374945 C79.7251079,105.091752 96.73848,85.5996544 99.667751,82.1531223 C101.620598,79.8554342 102.640682,80.167282 102.728003,83.0886656 C101.458315,111.711903 100.823471,127.601103 100.823471,130.756267 C100.823471,133.911431 99.8470476,134.764835 97.8942003,133.316479 C92.7918368,126.836777 87.8027539,121.2892 82.9269514,116.673748 C82.2564454,116.064459 81.2435662,116.109655 80.6662106,116.818383 C74.9627837,123.305214 64.2123947,126.777838 45.089355,125.024535 C-0.352770657,119.910531 -1.66066346,68.6801738 0.678015998,50.3965067 C3.01669546,32.1128396 19.7288982,-4.51234807 68.038119,0.459367057 C99.0825248,5.64104632 113.302333,26.7885223 110.697544,63.9017951 C110.410727,68.4564441 107.915231,70.7337686 103.211055,70.7337686 Z M73,45.9090734 C73,36.0181653 66.0604136,28 57.5,28 C48.9395864,28 42,36.0181653 42,45.9090734 C42.5453938,49.9734551 73,50.0867731 73,45.9090734 Z" id="Combined-Shape" fill="#FFFFFF"></path>
                    <path d="M40.396504,69.2537933 C40.015142,69.2537933 39.2502375,69.2537933 38.1017906,69.2537933 C36.3791203,69.2537933 35.8252685,72.5145328 35.8252685,74.363606 C34.7777238,89.8430969 37.317867,104.64396 62.4401753,105.924477 C83.641233,105.924477 94.2591552,93.777499 99.9948092,86.8742412 C100.76707,86.5251543 101.622252,86.7580413 101.561816,87.5560861 C99.9948092,108.248145 98.3365051,124.506107 98.3365051,125.065671 C98.3365051,125.938032 96.7137259,126.426246 95.7224217,125.501209 C91.3767492,120.810134 90.7142098,119.813164 87.187228,116.400093 C83.6602462,112.987023 82.4602575,113.417912 80.6396731,114.706319 C77.9751774,116.352168 69.0610485,123.897782 54.4547872,122.761721 C29.3260099,121.327753 13.7825286,108.192199 7.82434338,83.3550587 C3.83953558,44.3621183 14.3014015,20.270234 39.2099413,11.079406 C77.6568006,0.588621369 91.6141864,19.5771482 97.6458503,28.1221328 C103.677514,36.6671175 104.986621,56.1246244 104.999949,61.4448173 C105.008834,64.9916126 103.86279,67.1191648 101.561816,67.827474 L40.396504,69.2537933 Z M79,46.8787646 C79,33.6908871 69.5979797,23 58,23 C46.4020203,23 37,33.6908871 37,46.8787646 C37.7389207,52.2979401 79,52.4490309 79,46.8787646 Z" id="Combined-Shape" fill="#DF4A39"></path>
                </g>
                <g id="p(small)" transform="translate(160.000000, 104.000000)">
                    <path d="M15.1209998,3.0695595 C14.3981525,2.25205107 14.7113228,1.86620118 16.0605106,1.91200984 C41.7212917,1.84329685 61.6498711,1.84329685 67.5715406,1.84329685 C71.5193203,1.84329685 73.3541058,2.8188237 73.0758971,4.7698774 L73.0758971,10.9838238 L74.7818241,10.9838238 C80.6825601,3.31439286 91.3764703,-0.33866556 106.863555,0.024648578 C130.094181,0.569619786 158.902561,25.0414483 151.942557,70.4001081 C144.982553,115.758768 111.17418,127.865564 97.0098468,127.865564 C87.5669579,127.865564 78.7681421,126.245514 70.6133993,123.005412 C70.6133993,131.96611 70.6133993,138.57901 70.6133993,142.844112 C70.6133993,146.164636 72.2864757,147.98772 75.6326284,150.330348 C76.9946647,151.283903 79.6614313,152.65728 83.6329281,154.450477 C100.848908,160.615303 111.68608,164.499522 116.144445,166.103135 C122.831992,168.508553 119.150732,169.817983 116.549529,169.817983 C61.4169576,170.227521 5.20846349,169.817983 1.7361545,169.817983 C-0.578718166,169.817983 -0.578718166,169.123384 1.7361545,167.734185 C13.6506924,159.906727 25.5770002,152.09887 37.515078,144.310612 C40.4232841,142.107096 40.7363694,140.496986 40.9039089,136.734751 C42.7429618,84.2699256 41.8036534,84.1101947 42.8283487,33.09592 C43.1566789,25.8028949 40.5515793,25.5875684 35.191072,21.302316 C31.6174004,18.4454811 24.9273763,12.3678956 15.1209998,3.0695595 Z M88.5510269,89.567021 C99.1569659,91.4371341 109.970509,80.3871271 112.703751,64.8861395 C115.436994,49.3851518 109.054912,35.3030922 98.4489731,33.432979 C87.8430341,31.5628659 77.0294912,42.6128729 74.2962488,58.1138605 C71.5630065,73.6148482 77.945088,87.6969078 88.5510269,89.567021 Z" id="Combined-Shape" fill="#FFFFFF"></path>
                    <path d="M31.4471601,8.95251231 C41.9986513,8.9109694 53.0879584,9.06246349 64.7150814,9.40699459 C66.7740939,9.43582949 67.8036002,10.862824 67.8036002,13.6879782 C67.8036002,16.5131323 67.8036002,19.4206878 67.8036002,22.4106444 C82.3478209,12.8230423 93.6771683,8.01959259 101.791642,8.0002954 C113.963354,7.9713496 141.67694,9.98716256 145.507428,50.790729 C149.337916,91.5942955 130.481237,119.655814 101.008861,123.564678 C90.3136077,124.983168 79.0509582,123.174185 67.220912,118.13773 C66.3380164,117.471425 66.3380164,118.458864 66.3380164,118.805292 C66.3380164,128.826973 66.3380164,136.14645 66.3380164,140.763724 C66.3380164,146.068049 65.9676506,147.771423 67.8036002,149.979976 C69.8347386,152.423331 70.5851683,153.399099 76.8330271,156.134165 C88.1114498,161.071412 100.64437,165.335619 102.825684,165.754168 C103.448002,165.898585 104.278721,168 100.64437,168 C98.2214688,168 70.0103342,167.567702 16.0109659,166.703107 C14.9273949,165.751324 14.7148667,165.068232 15.3733814,164.653831 C16.0121818,164.251836 24.3378984,160.305389 40.9594297,148.522784 C41.944706,147.936731 44.005497,146.958299 44.2093092,143.984083 C45.3286849,104.741979 46.4660237,65.6294777 47.6213254,26.64658 C42.061306,21.6881507 36.209148,16.7411732 30.0648515,11.8056473 C29.4097358,11.3270081 28.6528702,8.88591935 31.4471601,8.95251231 Z M87.4223138,95.4682714 C100.20383,97.7219975 113.286369,84.1170328 116.642982,65.0807322 C119.999596,46.0444316 112.359202,28.7854548 99.5776862,26.5317286 C86.7961701,24.2780025 73.7136312,37.8829672 70.3570178,56.9192678 C67.0004044,75.9555684 74.6407977,93.2145452 87.4223138,95.4682714 Z" id="Combined-Shape" fill="#DF4A39"></path>
                </g>
                <g id="L" transform="translate(684.000000, 37.000000)">
                    <path d="M0.364763343,2.27911804 L23.6362302,16.7345382 L24.4966063,192.962071 L21.1311166,214.199824 C23.360264,216.148527 30.9270499,215.367202 43.8314743,211.855851 C51.8650865,212.962266 67.1476904,213.449388 89.6792859,213.317218 L112.538445,224.223367 L100.783766,161.94954 L79.4183184,181.97654 C73.7564359,182.76477 69.723564,182.800318 67.3197028,182.083183 C59.5126243,179.754129 57.0410758,175.156507 56.8371768,169.262171 C53.9167559,84.8383034 54.9475355,74.639521 54.1823817,19.3710836 C66.508261,13.2437679 77.0818781,6.8791563 85.9032329,0.277248948 L0.364763343,2.27911804 Z" id="Path-3" fill="#FFFFFF"></path>
                    <path d="M9,4 L30.2592182,15.5159049 L30.2592182,195.351484 C29.0822719,200.336006 28.081373,204.423538 27.2565216,207.614079 C26.3294093,209.417508 27.2565216,209.417508 29.0504044,209.417508 C37.3884775,208.366731 33.3561164,207.752253 41.5211973,206.837447 C49.5234754,207.94441 65.9296579,208.80443 90.7397449,209.417508 L104.608122,215.966449 L98.7955396,173.044122 L80.0737003,186.849948 C67.6333373,187.146995 59.8767909,186.285713 56.804061,184.266103 C49.0828965,179.191219 50.5364051,167.623544 50.5715747,162.212238 C51.2628454,55.8512836 48.9863993,70.8117706 48.2242298,15.5159049 C57.3103555,11.0969614 66.3863805,7.26611581 75.4523049,4.0233681 L9,4 Z" id="Path-3-Copy" fill="#DB4032"></path>
                </g>
                <g id="a" transform="translate(603.000000, 108.000000)">
                    <path d="M0.200888595,1.37309931 C0.151576733,-0.0975559606 1.57101603,-0.108477689 2.44186792,0.794966438 C9.86511942,8.49603825 11.0515242,10.1815073 16.7249506,18.3437287 C17.2002281,19.0274989 17.4205631,18.6862631 17.555983,18.5465006 C26.7272763,9.08110318 54.1507227,3.65795684 71.2784726,19.8943598 C81.3322472,29.753277 86.3775994,45.1276149 86.4145292,66.0173733 C86.263796,82.0402981 86.263796,98.2661861 86.4145292,114.695037 C86.4506626,118.633318 87.1057066,121.264376 88.0291647,122.303822 C95.8787293,130.10846 98.6644979,132.455202 103.26984,136.211376 C105.179062,137.454986 105.395293,139.424 104.367292,139.534103 C92.4260189,139.534103 77.3467997,138.760167 74.4786466,138.760167 C71.6104935,138.760167 69.752238,137.506187 67.4316164,132.677313 C65.1109949,127.848438 62.5264853,130.796629 61.4765568,131.475599 C48.9448539,140.140768 39.3242563,139.539669 30.930779,139.927364 C22.5373018,140.31506 -9.37533554,129.649571 6.96533323,96.1169865 C20.4681175,75.1331343 38.9885015,62.4794173 62.5264853,58.1558354 C62.8616453,49.759412 62.8616453,44.9602203 62.5264853,43.7582604 C62.0629372,41.8274726 58.2602193,35.9634393 42.6184905,35.2927822 C26.9767617,34.6221251 17.1608156,48.4272139 8.44988003,60.1636185 C6.52186883,61.3159438 4.72684435,60.9234379 4.36520871,58.1558354 C2.39175423,31.3340412 2.51702583,27.5570888 0.200888595,1.37309931 Z M32.2604395,121.029191 C37.246278,124.520313 46.7680269,119.524278 53.527861,109.870234 C60.2876951,100.21619 61.7258027,89.5599285 56.7399643,86.0688069 C51.7541258,82.5776852 42.2323769,87.5737206 35.4725428,97.2277642 C28.7127087,106.881808 27.2746011,117.53807 32.2604395,121.029191 Z" id="Combined-Shape" fill="#FFFFFF"></path>
                    <path d="M3.17021419,11.4214268 C3.01673408,7.84819532 6.3131786,10.1643659 7.26976238,11.4214268 C12.0840649,17.2958927 12.4869818,19.1780869 15.0669911,21.2855051 C16.4109425,22.438735 18.4161158,22.3814835 20.0716433,21.0123114 C23.5534579,18.012403 26.9851854,12.5718814 46.0083285,12.8847693 C65.0314716,13.1976571 78.6749025,27.2464754 82.0261716,50.3703495 C85.3774408,73.4942236 84.0785414,82.4759688 83.8119882,118.481904 C83.9018234,120.83281 84.6090642,122.255195 85.0947372,122.879039 C89.4706646,128.499884 92.154342,131.411974 95.6431707,134.451828 C96.866959,136.120584 96.6948193,137.034744 94.7864487,137.034744 C90.2612811,137.034744 76.7518673,137.496226 73.7190977,135.542312 C72.1415589,134.337353 69.5850564,131.646589 67.9528328,127.169567 C67.6707552,126.26431 66.7112048,124.653939 65.112522,125.729115 C59.3536218,129.602199 49.7392029,137.333031 36.5373972,137.333031 C19.6153832,137.333031 5.74488057,127.660745 5.74488057,117.039564 C5.74488057,106.418383 10.0473162,88.7710835 30.1728727,74.7606604 C45.4079786,64.1547286 50.6715561,62.4554537 62.1233175,61.5238102 C64.1736536,61.3570078 64.853394,60.1465657 65.112522,58.5496939 C65.6592185,54.6177419 65.6592185,49.6096501 65.112522,43.5254185 C64.6181893,38.1498799 58.0036648,34.6166889 45.2689484,32.9258455 C26.1668738,30.3895804 14.860702,49.9152164 8.9127713,54.7011856 C7.39882419,55.4168956 6.03733584,55.1453434 5.70769581,53.1464181 C4.64680282,38.3903583 4.43713521,26.9451021 3.17021419,11.4214268 Z M32.2604395,121.029191 C37.246278,124.520313 46.7680269,119.524278 53.527861,109.870234 C60.2876951,100.21619 61.7258027,89.5599285 56.7399643,86.0688069 C51.7541258,82.5776852 42.2323769,87.5737206 35.4725428,97.2277642 C28.7127087,106.881808 27.2746011,117.53807 32.2604395,121.029191 Z" id="Combined-Shape" fill="#DF4A39"></path>
                    <path d="M57.1874149,79.5247977 C59.1701849,79.3803527 60.5952255,80.1863401 61.4625368,81.9427599 C61.6182706,96.128448 60.3962825,105.120714 57.7965725,108.919559 C53.8970075,114.617825 45.6270295,123.218701 42.3010431,124.107826 C31.8735707,126.239302 27.0360234,124.08001 26.095417,120.600439 C24.4314487,114.444946 24.8353061,108.414051 27.4454118,102.840507 C32.2679884,94.1775106 36.6240757,84.9631209 57.1874149,79.5247977 Z M32.2604395,121.029191 C37.246278,124.520313 46.7680269,119.524278 53.527861,109.870234 C60.2876951,100.21619 61.7258027,89.5599285 56.7399643,86.0688069 C51.7541258,82.5776852 42.2323769,87.5737206 35.4725428,97.2277642 C28.7127087,106.881808 27.2746011,117.53807 32.2604395,121.029191 Z" id="Combined-Shape" fill="#FFFFFF"></path>
                </g>
                <g id="c" transform="translate(424.000000, 104.000000)">
                    <path d="M98.5848915,0 C98.5848915,21.1602778 96.9256602,39.7447314 93.6071976,55.7533607 L76.1095367,45.7248785 C46.5833638,46.3650614 31.8202774,55.5504033 31.8202774,73.2809042 C31.8202774,95.6611788 37.2652447,119.045653 84.6414091,109.868646 C87.9635782,104.140788 93.0831085,95.863911 100,85.0380157 L100,149 C92.8382467,140.333561 88.4740014,135.289585 86.907264,133.868074 C85.0854167,133.868074 65.8078315,138.44982 56.5982345,138.44982 C47.3886375,138.44982 29.8729147,132.737563 23.2131477,127.89491 C11.0692936,119.064501 0.307354451,107.818644 0,82.7714706 C0,58.2530478 4.95285366,43.6910485 15.0616296,33.7873354 C38.8343267,10.4968822 81.3292266,17.0761374 84.6414091,15.3055994 C87.2723564,12.8414559 95.4567643,4.0580213 98.5848915,0 Z" id="Path-2-Copy" fill="#FFFFFF"></path>
                    <path d="M95,10 C95,17.8036869 93.5681424,30.5585996 90.7044272,48.264738 L79.7048196,39.7642651 C40.5292483,40.4588992 22.2438981,53.589633 24.8487687,79.1564665 C28.3654904,114.308061 48.2021149,115.170214 56.6365227,116.15877 C65.7525275,117.227213 79.4053007,119.039221 86.0966787,113.731133 C87.2064215,111.953892 90.1741952,106.947568 95,98.7121596 L95,136 C92.0019491,131.49357 89.8761532,128.670449 88.6226123,127.530638 C84.3453451,127.530638 74.4312971,130.340276 68.327155,131.516423 C32.2336995,138.470919 3,115.786091 3,81.5039317 C3,3.78898811 79.306301,23.7937164 83.0832436,21.7703636 C85.1882549,19.7945383 91.003508,14.8519267 95,10 Z" id="Path-2" fill="#DB4032"></path>
                </g>
                <g id="i" transform="translate(519.000000, 63.000000)">
                    <path d="M22.7515933,49 C38.9527688,49 55.7665617,49 73.1929719,49 L73.1929719,155.942717 L97.9599822,177.108275 C98.1579736,179.036092 97.621281,180 96.3499044,180 C95.0785279,180 63.1423718,179.036092 0.541436294,177.108275 C-0.909854764,175.92428 0.556435283,174.096824 4.94030644,171.625909 C9.32417759,169.154993 19.3743334,162.728126 35.090774,152.345307 L35.961132,71.0354649 C30.4811113,64.5580169 25.3257709,58.4754473 20.4951108,52.787756 C18.6854932,50.0008906 20.8684216,49 22.7515933,49 Z" id="Path-26" fill="#FFFFFF"></path>
                    <path d="M29.0018193,56.4798413 C32.5259331,60.8850314 36.2259261,65.1443323 40.1017983,69.2577437 C40.8931956,107.243155 40.8931956,136.086576 40.1017983,155.788008 C39.9437235,156.239933 39.3644171,156.746306 38.363879,157.307127 C28.3277201,164.015975 20.7237328,168.942653 15.5519173,172.087162 C14.9094261,172.736603 14.8278816,173.405097 15.307284,174.092644 L84.570213,176 C86.8435231,175.606371 86.405972,174.532081 83.2575597,172.777127 C78.5349413,170.144698 69.28177,161.462206 68.3126738,158.398501 C67.6666097,156.35603 67.3293142,121.974708 67.3007872,55.2545349 C54.6420913,54.9051234 42.5943668,54.4869452 31.1576138,54 C29.8754053,54.0410219 28.2746595,55.2393909 29.0018193,56.4798413 Z" id="Path-27" fill="#DF4A39"></path>
                    <path d="M50.5,39 C57.1503569,39 64.2811347,38.5562547 68.8208903,35.3672603 C73.8948388,31.803017 76,25.1839855 76,19.5 C76,8.73044738 64.5832611,0 50.5,0 C46.0515249,0 41.4442382,0.567627046 37.8036276,2.0988835 C29.9185652,5.41537459 25,12.1322225 25,19.5 C25,30.2695526 36.4167389,39 50.5,39 Z" id="Oval-6-Copy" fill="#FFFFFF"></path>
                    <ellipse id="Oval-6" fill="#DF4A39" cx="48.5" cy="21.5" rx="19.5" ry="12.5"></ellipse>
                </g>
                <g id="s">
                    <path d="M178.557317,87.7822112 C144.885961,72.3069311 119.065081,51.9263584 111.046598,50.4311213 C103.028115,48.9358841 83.6085399,44.326365 79.9698178,55.808603 C76.3310957,67.2908409 76.6087725,78.0939518 113.869518,97.3662619 C151.130263,116.638572 215.141265,128.770342 198.987705,203.561596 C182.834146,278.35285 77.4004202,253.424217 66.7562803,248.485336 C59.660187,245.192749 48.4565637,239.244569 33.1454105,230.640796 C29.3254717,228.476248 26.2558223,228.476248 23.9364624,230.640796 C21.6171025,232.805344 13.7859576,239.817863 0.443027708,251.678354 L0.443027708,153.924923 C1.20657512,149.958225 3.40109085,149.429257 7.0265749,152.338019 C12.464801,156.701162 78.3754899,207.172073 111.046598,199.618466 C143.717706,192.06486 130.932883,162.806653 112.905811,155.001881 C94.8787402,147.197108 27.4943461,121.292199 13.9686869,90.5197897 C0.443027708,59.74738 6.65612086,20.6514327 66.7562803,2.51765245 C119.283566,-8.96977508 159.619495,27.2842147 168.531158,15.3938819 C175.444698,8.79127711 175.335214,6.23582064 181.957031,2.51765245 C185.094579,0.755910568 189.85779,1.89734414 189.940172,6.2286544 C188.575682,44.6625934 189.363447,43.5823162 184.207767,84.0558314 C183.713823,87.9334238 181.466546,89.1192862 178.557317,87.7822112 Z" id="Path-29" fill="#FFFFFF"></path>
                    <path d="M179.247342,17.1172693 C179.516922,45.2387955 179.466212,50.784922 176.844812,77.0569311 C176.592774,79.5828839 173.440749,77.7482603 172.433876,77.0569311 C142.759075,56.6819099 121.597571,44.3766316 106.159401,42.9221877 C64.7867766,37.0187701 63.2967874,69.42633 85.2286794,88.2591432 C94.356642,95.3190262 112.275264,105.947866 134.359591,116.109712 C156.443918,126.271558 162.771913,131.104203 172.433876,138.011188 C190.129165,153.167148 195.830188,170.305292 196.496548,183.291687 C197.44949,201.863138 184.081425,249.559207 123.369326,248.420239 C62.6572278,247.281271 48.9059758,233.936675 31.0042204,219.025081 C28.7125283,218.331222 28.2278466,217.508435 26.2823474,219.025081 C18.591863,226.620121 12.3023342,232.75023 7.41376098,237.415407 L7.41376098,162.78717 C46.0376288,199.142367 80.7936978,216.116857 111.681968,213.710639 C144.273567,211.212473 152.498478,167.182023 121.978676,151.961675 C91.4588734,136.741327 37.3341546,124.00691 19.4875656,80.7717354 C1.64097661,37.5365605 59.0693857,11.8582997 79.7134461,11.5433779 C100.357507,11.228456 124.009326,12.0276849 160.307473,26.1446575 C162.610692,26.8990572 165.390541,27.0413902 169.374426,24.628997 C171.381877,23.2976835 174.513998,19.3403174 177.346902,15.8266401 C178.218495,15.2912325 179.234672,15.795519 179.247342,17.1172693 Z" id="Path-30" fill="#DF4A39"></path>
                </g>
            </g>
            <g id="#" transform="translate(755.000000, 105.000000)">
                <path d="M42.2822581,64.6565934 L30.3494624,64.6565934 L25.8978495,90 L14.5833333,90 L19.0349462,64.6565934 L5,64.6565934 L5,54.0247253 L20.8897849,54.0247253 L23.9811828,36.4697802 L9.63709677,36.4697802 L9.63709677,25.7142857 L25.8978495,25.7142857 L30.4112903,0 L41.6639785,0 L37.1505376,25.7142857 L49.1451613,25.7142857 L53.6586022,0 L64.9731183,0 L60.4596774,25.7142857 L74,25.7142857 L74,36.4697802 L58.5430108,36.4697802 L55.4516129,54.0247253 L69.3010753,54.0247253 L69.3010753,64.6565934 L53.5967742,64.6565934 L49.1451613,90 L37.8306452,90 L42.2822581,64.6565934 Z M32.2043011,54.0247253 L44.1370968,54.0247253 L47.2284946,36.4697802 L35.233871,36.4697802 L32.2043011,54.0247253 Z" id="#-copy" fill="#FFFFFF"></path>
                <path d="M37.2822581,64.6565934 L25.3494624,64.6565934 L20.8978495,90 L9.58333333,90 L14.0349462,64.6565934 L0,64.6565934 L0,54.0247253 L15.8897849,54.0247253 L18.9811828,36.4697802 L4.63709677,36.4697802 L4.63709677,25.7142857 L20.8978495,25.7142857 L25.4112903,0 L36.6639785,0 L32.1505376,25.7142857 L44.1451613,25.7142857 L48.6586022,0 L59.9731183,0 L55.4596774,25.7142857 L69,25.7142857 L69,36.4697802 L53.5430108,36.4697802 L50.4516129,54.0247253 L64.3010753,54.0247253 L64.3010753,64.6565934 L48.5967742,64.6565934 L44.1451613,90 L32.8306452,90 L37.2822581,64.6565934 Z M27.2043011,54.0247253 L39.1370968,54.0247253 L42.2284946,36.4697802 L30.233871,36.4697802 L27.2043011,54.0247253 Z" fill="#DB4032"></path>
            </g>
        </g>
    </g>
</svg>